<?xml version="1.0" encoding="UTF-8"?>
<!DOCTYPE svg PUBLIC "-//W3C//DTD SVG 1.1//EN" "http://www.w3.org/Graphics/SVG/1.1/DTD/svg11.dtd">
<svg xmlns="http://www.w3.org/2000/svg" version="1.1" width="919px" height="1127px" style="shape-rendering:geometricPrecision; text-rendering:geometricPrecision; image-rendering:optimizeQuality; fill-rule:evenodd; clip-rule:evenodd" xmlns:xlink="http://www.w3.org/1999/xlink">
<g><path style="opacity:0.985" fill="#be9f45" d="M 30.5,-0.5 C 35.5,-0.5 40.5,-0.5 45.5,-0.5C 54.131,8.63168 62.9644,17.6317 72,26.5C 76.0247,33.953 75.0247,40.6196 69,46.5C 60.7676,55.4022 51.9343,63.5689 42.5,71C 38.8333,71.6667 35.1667,71.6667 31.5,71C 20.9335,61.103 11.1001,50.603 2,39.5C 1.14625,35.3749 1.47958,31.3749 3,27.5C 12.3689,18.2984 21.5356,8.96503 30.5,-0.5 Z"/></g>
<g><path style="opacity:0.984" fill="#be9f45" d="M 78.5,42.5 C 83.3236,41.9711 87.6569,43.1378 91.5,46C 99,53.5 106.5,61 114,68.5C 116.754,71.5078 118.587,75.0078 119.5,79C 118.953,82.9245 117.453,86.4245 115,89.5C 106.83,98.0033 98.3299,106.17 89.5,114C 84.5,116 79.5,116 74.5,114C 64.9695,104.804 55.8029,95.3037 47,85.5C 44.526,79.5358 45.526,74.2025 50,69.5C 59.0933,59.9023 68.5933,50.9023 78.5,42.5 Z"/></g>
<g><path style="opacity:0.983" fill="#bea045" d="M 167.5,42.5 C 170.187,42.3359 172.854,42.5026 175.5,43C 185.936,51.4326 195.769,60.5993 205,70.5C 208.644,75.6843 208.977,81.0176 206,86.5C 197.167,96.6667 187.667,106.167 177.5,115C 172.087,117.317 167.087,116.65 162.5,113C 153.303,104.137 144.469,94.9703 136,85.5C 133.418,79.4883 134.418,74.155 139,69.5C 148.093,59.9023 157.593,50.9023 167.5,42.5 Z"/></g>
<g><path style="opacity:0.984" fill="#bfa044" d="M 121.5,87.5 C 125.967,87.1326 130.3,87.6326 134.5,89C 144.734,98.564 154.234,108.731 163,119.5C 163.738,123.261 163.405,126.928 162,130.5C 152.799,141.034 142.966,150.867 132.5,160C 127.023,161.173 122.023,160.173 117.5,157C 107.932,148.102 99.0988,138.602 91,128.5C 89.7581,123.306 90.7581,118.64 94,114.5C 103.062,105.27 112.228,96.2704 121.5,87.5 Z"/></g>
<g><path style="opacity:0.981" fill="#bea045" d="M 210.5,87.5 C 215.52,86.873 220.187,87.7063 224.5,90C 232.667,98.1667 240.833,106.333 249,114.5C 253.292,120.206 253.626,126.206 250,132.5C 241.137,141.697 231.97,150.531 222.5,159C 218.259,160.457 213.926,160.791 209.5,160C 199.303,150.137 189.47,139.971 180,129.5C 178.618,123.906 179.618,118.906 183,114.5C 192.062,105.27 201.228,96.2704 210.5,87.5 Z"/></g>
<g><path style="opacity:0.984" fill="#bea045" d="M 168.5,131.5 C 173.925,131.378 178.592,133.212 182.5,137C 189.667,144.167 196.833,151.333 204,158.5C 208.157,163.288 209.157,168.621 207,174.5C 197.825,185.342 187.658,195.175 176.5,204C 172.833,206 169.167,206 165.5,204C 154.298,194.465 144.131,183.965 135,172.5C 133.973,167.684 134.973,163.35 138,159.5C 147.463,149.195 157.63,139.862 168.5,131.5 Z"/></g>
<g><path style="opacity:0.983" fill="#bfa045" d="M 257.5,131.5 C 261.897,131.431 265.897,132.598 269.5,135C 279.068,143.898 287.901,153.398 296,163.5C 298,167.167 298,170.833 296,174.5C 291.299,178.866 286.966,183.533 283,188.5C 277.198,193.3 271.698,198.467 266.5,204C 262.548,205.793 258.548,205.793 254.5,204C 244.696,195.197 235.196,186.03 226,176.5C 222.348,170.06 223.014,164.06 228,158.5C 237.154,148.502 246.987,139.502 257.5,131.5 Z"/></g>
<g><path style="opacity:0.984" fill="#bea045" d="M 346.5,131.5 C 352.051,131.215 356.717,133.048 360.5,137C 367.667,144.167 374.833,151.333 382,158.5C 386.727,163.774 387.394,169.441 384,175.5C 375.5,185.333 366.333,194.5 356.5,203C 350.917,206.482 345.584,206.149 340.5,202C 332.333,193.833 324.167,185.667 316,177.5C 311.333,171.5 311.333,165.5 316,159.5C 325.487,149.17 335.653,139.836 346.5,131.5 Z"/></g>
<g><path style="opacity:0.984" fill="#bfa044" d="M 211.5,176.5 C 216.702,175.756 221.369,176.923 225.5,180C 234,188.5 242.5,197 251,205.5C 253.302,210.705 252.969,215.705 250,220.5C 241.167,229.333 232.333,238.167 223.5,247C 221.421,248.64 219.088,249.806 216.5,250.5C 214.111,249.82 211.778,248.986 209.5,248C 198.631,238.798 188.798,228.632 180,217.5C 178.65,212.227 179.65,207.561 183,203.5C 192.093,193.902 201.593,184.902 211.5,176.5 Z"/></g>
<g><path style="opacity:0.984" fill="#bea045" d="M 300.5,176.5 C 303.85,176.335 307.183,176.502 310.5,177C 321,186.167 330.833,196 340,206.5C 342,210.833 342,215.167 340,219.5C 334.134,225.031 328.634,230.865 323.5,237C 319.2,240.298 315.2,243.965 311.5,248C 305.136,250.665 299.469,249.665 294.5,245C 285.636,236.47 277.136,227.637 269,218.5C 267.618,212.906 268.618,207.906 272,203.5C 281.093,193.902 290.593,184.902 300.5,176.5 Z"/></g>
<g><path style="opacity:0.984" fill="#bfa045" d="M 389.5,176.5 C 395.305,175.524 400.305,177.024 404.5,181C 414.112,189.606 422.612,199.106 430,209.5C 430.912,213.452 430.245,217.119 428,220.5C 418.833,229.667 409.667,238.833 400.5,248C 394.774,250.325 389.44,249.658 384.5,246C 374.932,237.102 366.099,227.602 358,217.5C 356.758,212.306 357.758,207.64 361,203.5C 370.17,193.821 379.67,184.821 389.5,176.5 Z"/></g>
<g><path style="opacity:0.983" fill="#bea045" d="M 258.5,220.5 C 261.216,220.678 263.883,221.178 266.5,222C 275.637,230.136 284.47,238.636 293,247.5C 297.964,252.655 298.631,258.322 295,264.5C 286.527,274.306 277.36,283.473 267.5,292C 261.436,295.124 255.769,294.457 250.5,290C 241.636,281.47 233.136,272.637 225,263.5C 222.417,256.914 223.751,251.248 229,246.5C 236.167,239.333 243.333,232.167 250.5,225C 252.87,222.758 255.536,221.258 258.5,220.5 Z"/></g>
<g><path style="opacity:0.981" fill="#bfa045" d="M 434.5,220.5 C 436.857,220.337 439.19,220.503 441.5,221C 453.592,229.757 464.426,239.924 474,251.5C 475.954,255.961 475.621,260.294 473,264.5C 463.833,273.667 454.667,282.833 445.5,292C 439.391,295.38 433.724,294.714 428.5,290C 418.932,281.102 410.099,271.602 402,261.5C 401.035,257.218 401.702,253.218 404,249.5C 413.76,239.236 423.926,229.57 434.5,220.5 Z"/></g>
<g><path style="opacity:0.984" fill="#bea045" d="M 343.5,221.5 C 347.514,221.334 351.514,221.501 355.5,222C 365.667,230.833 375.167,240.333 384,250.5C 387.131,255.134 387.131,259.801 384,264.5C 375.5,274.333 366.333,283.5 356.5,292C 350.322,295.631 344.655,294.964 339.5,290C 332,282.5 324.5,275 317,267.5C 311.392,261.455 311.059,255.122 316,248.5C 325.062,239.27 334.228,230.27 343.5,221.5 Z"/></g>
<g><path style="opacity:0.981" fill="#bea045" d="M 525.5,220.5 C 528.271,220.421 530.937,220.921 533.5,222C 543.667,230.833 553.167,240.333 562,250.5C 564,255.167 564,259.833 562,264.5C 552.833,273.667 543.667,282.833 534.5,292C 529.554,295.087 524.554,295.087 519.5,292C 511,283.5 502.5,275 494,266.5C 490.301,261.91 489.635,256.91 492,251.5C 500.803,241.696 509.97,232.196 519.5,223C 521.611,222.155 523.611,221.322 525.5,220.5 Z"/></g>
<g><path style="opacity:0.983" fill="#bea045" d="M 300.5,265.5 C 306.305,264.524 311.305,266.024 315.5,270C 324.031,278.197 332.198,286.697 340,295.5C 342.365,300.91 341.699,305.91 338,310.5C 329.833,320 321,328.833 311.5,337C 305.136,339.665 299.469,338.665 294.5,334C 285.636,325.47 277.136,316.637 269,307.5C 267.47,301.381 268.803,296.048 273,291.5C 281.76,282.235 290.927,273.569 300.5,265.5 Z"/></g>
<g><path style="opacity:0.984" fill="#bea045" d="M 393.5,264.5 C 396.016,264.755 398.35,265.589 400.5,267C 410.667,275.833 420.167,285.333 429,295.5C 430.923,299.805 430.923,304.138 429,308.5C 419.798,319.369 409.632,329.202 398.5,338C 393.816,339.102 389.483,338.436 385.5,336C 375.97,326.804 366.803,317.304 358,307.5C 357.333,303.833 357.333,300.167 358,296.5C 367.136,286.363 376.636,276.53 386.5,267C 388.927,266.098 391.26,265.264 393.5,264.5 Z"/></g>
<g><path style="opacity:0.982" fill="#bfa045" d="M 478.5,265.5 C 481.518,265.335 484.518,265.502 487.5,266C 499.333,275.167 509.833,285.667 519,297.5C 520.075,301.858 519.408,305.858 517,309.5C 508.167,318.333 499.333,327.167 490.5,336C 487.945,337.444 485.279,338.611 482.5,339.5C 479.226,338.53 476.226,337.03 473.5,335C 463.932,326.102 455.099,316.602 447,306.5C 445.65,301.227 446.65,296.561 450,292.5C 459.093,282.902 468.593,273.902 478.5,265.5 Z"/></g>
<g><path style="opacity:0.982" fill="#bea045" d="M 567.5,265.5 C 571.308,265.163 574.974,265.663 578.5,267C 588.667,275.833 598.167,285.333 607,295.5C 609.147,300.327 608.814,304.994 606,309.5C 597.864,318.637 589.364,327.47 580.5,336C 574.223,339.629 568.223,339.296 562.5,335C 553.303,326.137 544.469,316.97 536,307.5C 533.978,301.918 534.978,296.918 539,292.5C 548.093,282.902 557.593,273.902 567.5,265.5 Z"/></g>
<g><path style="opacity:0.983" fill="#bea045" d="M 345.5,309.5 C 350.781,309.315 355.448,310.815 359.5,314C 368.031,322.197 376.198,330.697 384,339.5C 387.212,344.2 387.212,348.867 384,353.5C 378.467,358.698 373.3,364.198 368.5,370C 363.866,373.632 359.533,377.632 355.5,382C 350.137,384.102 345.137,383.436 340.5,380C 333,372.5 325.5,365 318,357.5C 311.146,350.742 310.812,343.742 317,336.5C 326.093,326.902 335.593,317.902 345.5,309.5 Z"/></g>
<g><path style="opacity:0.985" fill="#bfa045" d="M 524.5,309.5 C 529.05,308.884 533.05,310.051 536.5,313C 545.697,321.863 554.531,331.03 563,340.5C 563.667,344.167 563.667,347.833 563,351.5C 554.901,361.602 546.068,371.102 536.5,380C 530.976,383.954 525.31,384.288 519.5,381C 509.97,371.804 500.803,362.304 492,352.5C 489.913,347.68 490.246,343.013 493,338.5C 502.819,327.837 513.319,318.17 524.5,309.5 Z"/></g>
<g><path style="opacity:0.98" fill="#bfa045" d="M 612.5,309.5 C 615.187,309.336 617.854,309.503 620.5,310C 631.632,318.798 641.798,328.631 651,339.5C 653,344.167 653,348.833 651,353.5C 642.5,363.333 633.333,372.5 623.5,381C 618.5,384.333 613.5,384.333 608.5,381C 600,372.5 591.5,364 583,355.5C 578.117,348.895 578.45,342.562 584,336.5C 593.093,326.902 602.593,317.902 612.5,309.5 Z"/></g>
<g><path style="opacity:0.981" fill="#bea045" d="M 438.5,309.5 C 443.213,310.356 447.213,312.523 450.5,316C 458.365,323.53 465.865,331.364 473,339.5C 475.874,344.054 475.874,348.721 473,353.5C 463.833,362.667 454.667,371.833 445.5,381C 438.842,384.27 432.842,383.27 427.5,378C 419.667,370.167 411.833,362.333 404,354.5C 400.175,347.95 400.842,341.95 406,336.5C 413.833,328.667 421.667,320.833 429.5,313C 432.35,311.209 435.35,310.042 438.5,309.5 Z"/></g>
<g><path style="opacity:0.982" fill="#bea045" d="M 300.5,354.5 C 306.305,353.524 311.305,355.024 315.5,359C 323.333,366.833 331.167,374.667 339,382.5C 341.835,387.343 342.168,392.343 340,397.5C 331.167,407.667 321.667,417.167 311.5,426C 307.594,427.434 303.594,427.767 299.5,427C 289.363,417.864 279.53,408.364 270,398.5C 267.749,392.947 268.082,387.613 271,382.5C 280.426,372.569 290.26,363.236 300.5,354.5 Z"/></g>
<g><path style="opacity:0.985" fill="#bfa045" d="M 388.5,354.5 C 394.626,353.467 399.959,354.967 404.5,359C 413.031,367.197 421.198,375.697 429,384.5C 432.367,389.41 432.034,394.077 428,398.5C 419.131,409.036 409.298,418.536 398.5,427C 393.306,428.242 388.64,427.242 384.5,424C 375.303,415.137 366.469,405.97 358,396.5C 357.333,392.833 357.333,389.167 358,385.5C 367.699,374.634 377.866,364.301 388.5,354.5 Z"/></g>
<g><path style="opacity:0.984" fill="#bea045" d="M 477.5,354.5 C 481.637,354.146 485.637,354.646 489.5,356C 499.667,364.833 509.167,374.333 518,384.5C 520.288,390.198 519.621,395.531 516,400.5C 507.102,410.068 497.602,418.901 487.5,427C 482.306,428.242 477.64,427.242 473.5,424C 465.667,416.167 457.833,408.333 450,400.5C 445.006,394.612 444.672,388.612 449,382.5C 458.395,372.937 467.895,363.604 477.5,354.5 Z"/></g>
<g><path style="opacity:0.982" fill="#bfa045" d="M 567.5,354.5 C 570.518,354.335 573.518,354.502 576.5,355C 588.333,364.167 598.833,374.667 608,386.5C 608.667,389.167 608.667,391.833 608,394.5C 599.577,406.258 589.744,416.758 578.5,426C 573.343,428.168 568.343,427.835 563.5,425C 554.333,415.833 545.167,406.667 536,397.5C 534.592,391.584 535.592,386.25 539,381.5C 548.093,371.902 557.593,362.902 567.5,354.5 Z"/></g>
<g><path style="opacity:0.981" fill="#bea045" d="M 656.5,354.5 C 659.85,354.335 663.183,354.502 666.5,355C 676.667,363.833 686.167,373.333 695,383.5C 697.814,388.006 698.147,392.673 696,397.5C 687.167,407.667 677.667,417.167 667.5,426C 662.275,428.243 657.275,427.909 652.5,425C 642.97,415.804 633.803,406.304 625,396.5C 623.082,391.493 623.749,386.826 627,382.5C 636.426,372.569 646.26,363.236 656.5,354.5 Z"/></g>
<g><path style="opacity:0.983" fill="#bfa045" d="M 347.5,398.5 C 351.599,398.367 355.266,399.533 358.5,402C 367.725,410.89 376.558,420.056 385,429.5C 387.126,434.006 386.793,438.339 384,442.5C 379.965,446.2 376.298,450.2 373,454.5C 367.198,459.3 361.698,464.467 356.5,470C 350.954,473.282 345.62,472.949 340.5,469C 331.303,460.137 322.469,450.97 314,441.5C 311.968,436.708 312.301,432.041 315,427.5C 324.196,417.97 333.696,408.803 343.5,400C 345.058,399.79 346.391,399.29 347.5,398.5 Z"/></g>
<g><path style="opacity:0.986" fill="#bea045" d="M 614.5,398.5 C 618.599,398.367 622.266,399.533 625.5,402C 635.068,410.898 643.901,420.398 652,430.5C 652.854,434.625 652.52,438.625 651,442.5C 642.5,452.333 633.333,461.5 623.5,470C 618.5,473.333 613.5,473.333 608.5,470C 598.97,460.804 589.803,451.304 581,441.5C 578.635,436.09 579.301,431.09 583,426.5C 591.167,418.333 599.333,410.167 607.5,402C 609.713,400.384 612.047,399.217 614.5,398.5 Z"/></g>
<g><path style="opacity:0.983" fill="#bfa045" d="M 437.5,398.5 C 440.198,399.143 442.865,399.976 445.5,401C 455.667,409.833 465.167,419.333 474,429.5C 475.954,433.961 475.621,438.294 473,442.5C 464.836,451.663 456.336,460.497 447.5,469C 441.963,472.813 436.297,473.146 430.5,470C 420.266,460.436 410.766,450.269 402,439.5C 401.333,436.833 401.333,434.167 402,431.5C 410.433,421.064 419.599,411.231 429.5,402C 432.025,400.281 434.692,399.114 437.5,398.5 Z"/></g>
<g><path style="opacity:0.985" fill="#bfa045" d="M 526.5,398.5 C 528.801,399.06 531.134,399.56 533.5,400C 543.667,408.833 553.167,418.333 562,428.5C 563.021,431.105 563.855,433.772 564.5,436.5C 563.355,440.794 561.188,444.461 558,447.5C 550.47,455.365 542.636,462.865 534.5,470C 528.491,473.139 522.824,472.472 517.5,468C 509.333,459.833 501.167,451.667 493,443.5C 490.107,438.686 489.774,433.686 492,428.5C 500.833,419.667 509.667,410.833 518.5,402C 521.025,400.281 523.692,399.114 526.5,398.5 Z"/></g>
<g><path style="opacity:0.983" fill="#bea045" d="M 705.5,398.5 C 707.414,399.185 709.414,399.685 711.5,400C 722,409.167 731.833,419 741,429.5C 741.667,433.167 741.667,436.833 741,440.5C 732.202,451.632 722.369,461.798 711.5,471C 706.713,471.879 702.047,471.545 697.5,470C 687.266,460.436 677.766,450.269 669,439.5C 667.814,434.632 668.814,430.298 672,426.5C 680.863,417.303 690.03,408.469 699.5,400C 701.708,399.809 703.708,399.309 705.5,398.5 Z"/></g>
<g><path style="opacity:0.987" fill="#bea045" d="M 388.5,443.5 C 393.52,442.873 398.187,443.706 402.5,446C 410,454.833 418.167,463 427,470.5C 431.667,476.833 431.667,483.167 427,489.5C 418.137,498.697 408.97,507.531 399.5,516C 393.381,517.53 388.048,516.197 383.5,512C 374.265,503.435 365.765,494.268 358,484.5C 357.163,480.705 357.496,477.039 359,473.5C 368.366,462.968 378.199,452.968 388.5,443.5 Z"/></g>
<g><path style="opacity:0.983" fill="#bea045" d="M 478.5,443.5 C 481.518,443.335 484.518,443.502 487.5,444C 498.298,452.464 508.131,461.964 517,472.5C 520.333,477.5 520.333,482.5 517,487.5C 508.5,497.333 499.333,506.5 489.5,515C 483.764,517.4 478.431,516.733 473.5,513C 464.303,504.137 455.469,494.97 447,485.5C 445.618,479.906 446.618,474.906 450,470.5C 459.093,460.902 468.593,451.902 478.5,443.5 Z"/></g>
<g><path style="opacity:0.983" fill="#bfa045" d="M 567.5,443.5 C 570.518,443.335 573.518,443.502 576.5,444C 587.298,452.464 597.131,461.964 606,472.5C 609.333,477.5 609.333,482.5 606,487.5C 597.131,498.036 587.298,507.536 576.5,516C 573.167,516.667 569.833,516.667 566.5,516C 557.03,507.531 547.863,498.697 539,489.5C 536.404,486.85 534.904,483.684 534.5,480C 534.904,476.316 536.404,473.15 539,470.5C 548.093,460.902 557.593,451.902 567.5,443.5 Z"/></g>
<g><path style="opacity:0.983" fill="#bea045" d="M 655.5,443.5 C 658.85,443.335 662.183,443.502 665.5,444C 675.268,451.765 684.435,460.265 693,469.5C 697.986,475.06 698.652,481.06 695,487.5C 686.5,497.333 677.333,506.5 667.5,515C 661.661,517.538 656.327,516.871 651.5,513C 643,504.5 634.5,496 626,487.5C 623.33,480.844 624.33,474.844 629,469.5C 637.728,460.604 646.562,451.937 655.5,443.5 Z"/></g>
<g><path style="opacity:0.983" fill="#bfa045" d="M 748.5,442.5 C 750.564,442.687 752.564,443.187 754.5,444C 764.964,452.13 774.464,461.297 783,471.5C 787.29,476.884 787.623,482.551 784,488.5C 775.137,497.697 765.97,506.531 756.5,515C 750.088,517.731 744.421,516.731 739.5,512C 731.667,504.167 723.833,496.333 716,488.5C 711.333,482.833 711.333,477.167 716,471.5C 723.833,463.667 731.667,455.833 739.5,448C 742.193,445.435 745.193,443.602 748.5,442.5 Z"/></g>
<g><path style="opacity:0.983" fill="#bea045" d="M 436.5,487.5 C 441.087,487.576 445.087,489.076 448.5,492C 456,499.5 463.5,507 471,514.5C 475.424,519.82 476.09,525.486 473,531.5C 464.5,541.333 455.333,550.5 445.5,559C 440.5,562.333 435.5,562.333 430.5,559C 420.97,549.804 411.803,540.304 403,530.5C 400.418,524.488 401.418,519.155 406,514.5C 414.167,506.333 422.333,498.167 430.5,490C 432.611,489.155 434.611,488.322 436.5,487.5 Z"/></g>
<g><path style="opacity:0.983" fill="#bea045" d="M 526.5,487.5 C 528.801,488.06 531.134,488.56 533.5,489C 543.667,497.833 553.167,507.333 562,517.5C 564.502,521.984 564.502,526.65 562,531.5C 553.167,541.667 543.667,551.167 533.5,560C 528.06,562.413 523.06,561.746 518.5,558C 508.599,548.769 499.433,538.936 491,528.5C 489.925,524.142 490.592,520.142 493,516.5C 501.167,508.333 509.333,500.167 517.5,492C 520.098,489.472 523.098,487.972 526.5,487.5 Z"/></g>
<g><path style="opacity:0.983" fill="#bea045" d="M 614.5,487.5 C 617.688,487.618 620.688,488.451 623.5,490C 633.333,498.5 642.5,507.667 651,517.5C 653.91,524.767 652.577,531.1 647,536.5C 639.5,544 632,551.5 624.5,559C 619.167,562.333 613.833,562.333 608.5,559C 600,550.5 591.5,542 583,533.5C 578.333,527.5 578.333,521.5 583,515.5C 587.035,511.8 590.702,507.8 594,503.5C 599.134,499.367 603.968,494.867 608.5,490C 610.611,489.155 612.611,488.322 614.5,487.5 Z"/></g>
<g><path style="opacity:0.984" fill="#bea045" d="M 704.5,487.5 C 706.854,487.838 709.187,488.338 711.5,489C 722,498.167 731.833,508 741,518.5C 741.867,522.956 741.534,527.289 740,531.5C 731.5,541.333 722.333,550.5 712.5,559C 706.368,562.403 700.701,561.736 695.5,557C 687.667,549.167 679.833,541.333 672,533.5C 667.783,528.084 667.449,522.417 671,516.5C 680.167,507.333 689.333,498.167 698.5,489C 700.708,488.809 702.708,488.309 704.5,487.5 Z"/></g>
<g><path style="opacity:0.983" fill="#bea045" d="M 793.5,487.5 C 796.311,487.826 798.978,488.659 801.5,490C 805.533,494.368 809.866,498.368 814.5,502C 819.3,507.802 824.467,513.302 830,518.5C 830.867,522.956 830.534,527.289 829,531.5C 820.167,541.667 810.667,551.167 800.5,560C 796.48,561.874 792.48,561.874 788.5,560C 778.363,550.864 768.53,541.364 759,531.5C 757.543,527.259 757.209,522.926 758,518.5C 767.833,508.667 777.667,498.833 787.5,489C 789.708,488.809 791.708,488.309 793.5,487.5 Z"/></g>
<g><path style="opacity:0.985" fill="#bea045" d="M 478.5,532.5 C 481.518,532.335 484.518,532.502 487.5,533C 499.333,542.167 509.833,552.667 519,564.5C 519.667,567.833 519.667,571.167 519,574.5C 510.531,583.97 501.697,593.137 492.5,602C 486.069,606.538 479.736,606.538 473.5,602C 465.667,594.167 457.833,586.333 450,578.5C 447.973,575.779 446.473,572.779 445.5,569.5C 446.188,565.791 447.688,562.457 450,559.5C 459.093,549.902 468.593,540.902 478.5,532.5 Z"/></g>
<g><path style="opacity:0.984" fill="#bea045" d="M 567.5,532.5 C 570.518,532.335 573.518,532.502 576.5,533C 587.298,541.464 597.131,550.964 606,561.5C 608.814,566.006 609.147,570.673 607,575.5C 598.167,585.667 588.667,595.167 578.5,604C 572.764,606.4 567.431,605.733 562.5,602C 553.303,593.137 544.469,583.97 536,574.5C 535.333,570.5 535.333,566.5 536,562.5C 546.117,551.878 556.617,541.878 567.5,532.5 Z"/></g>
<g><path style="opacity:0.982" fill="#bea045" d="M 655.5,532.5 C 660.449,531.959 665.116,532.792 669.5,535C 678.697,543.863 687.531,553.03 696,562.5C 697.822,566.787 697.822,571.121 696,575.5C 687.167,585.667 677.667,595.167 667.5,604C 661.661,606.538 656.327,605.871 651.5,602C 643.333,593.833 635.167,585.667 627,577.5C 622.268,570.664 622.935,564.33 629,558.5C 637.728,549.604 646.562,540.937 655.5,532.5 Z"/></g>
<g><path style="opacity:0.981" fill="#bfa045" d="M 744.5,532.5 C 747.85,532.335 751.183,532.502 754.5,533C 765.632,541.798 775.798,551.631 785,562.5C 787.21,567.357 786.877,572.024 784,576.5C 778.8,581.365 773.967,586.532 769.5,592C 764.5,596.333 759.5,600.667 754.5,605C 749.816,606.102 745.483,605.436 741.5,603C 731.97,593.804 722.803,584.304 714,574.5C 711.812,569.437 712.479,564.771 716,560.5C 725.395,550.937 734.895,541.604 744.5,532.5 Z"/></g>
<g><path style="opacity:0.982" fill="#bea045" d="M 833.5,532.5 C 838.194,531.896 842.528,532.729 846.5,535C 857.036,543.869 866.536,553.702 875,564.5C 875.738,568.261 875.405,571.928 874,575.5C 864.798,586.369 854.632,596.202 843.5,605C 838.816,606.102 834.483,605.436 830.5,603C 822,594.5 813.5,586 805,577.5C 800.333,571.833 800.333,566.167 805,560.5C 814.395,550.937 823.895,541.604 833.5,532.5 Z"/></g>
<g><path style="opacity:0.982" fill="#bea045" d="M 613.5,576.5 C 617.059,576.408 620.392,577.241 623.5,579C 626.867,582.703 630.534,586.036 634.5,589C 639.634,595.135 645.134,600.969 651,606.5C 653.91,613.767 652.577,620.1 647,625.5C 639.47,633.365 631.636,640.865 623.5,648C 617.911,651.534 612.578,651.201 607.5,647C 598.303,638.137 589.469,628.97 581,619.5C 578.913,614.68 579.246,610.013 582,605.5C 591.819,594.837 602.319,585.17 613.5,576.5 Z"/></g>
<g><path style="opacity:0.982" fill="#bea045" d="M 703.5,576.5 C 706.794,576.259 709.794,577.092 712.5,579C 722.333,587.5 731.5,596.667 740,606.5C 742,611.167 742,615.833 740,620.5C 731.5,630.333 722.333,639.5 712.5,648C 707.5,650 702.5,650 697.5,648C 689,639.5 680.5,631 672,622.5C 667.421,616.531 667.421,610.531 672,604.5C 680.167,596.333 688.333,588.167 696.5,580C 698.925,578.787 701.259,577.621 703.5,576.5 Z"/></g>
<g><path style="opacity:0.981" fill="#bfa045" d="M 526.5,576.5 C 529.311,576.826 531.978,577.659 534.5,579C 545.036,587.869 554.536,597.702 563,608.5C 563.667,612.167 563.667,615.833 563,619.5C 553.833,630 544,639.833 533.5,649C 527.459,651.614 522.126,650.614 517.5,646C 509.333,637.833 501.167,629.667 493,621.5C 489.13,614.386 490.13,608.052 496,602.5C 504.167,594.333 512.333,586.167 520.5,578C 522.708,577.809 524.708,577.309 526.5,576.5 Z"/></g>
<g><path style="opacity:0.984" fill="#bea045" d="M 792.5,576.5 C 797.113,576.482 801.113,577.982 804.5,581C 813.679,589.513 822.179,598.68 830,608.5C 830.667,611.833 830.667,615.167 830,618.5C 821.536,629.298 812.036,639.131 801.5,648C 796.468,651.232 791.468,651.232 786.5,648C 778,639.5 769.5,631 761,622.5C 756.783,617.084 756.449,611.417 760,605.5C 768.167,597.333 776.333,589.167 784.5,581C 786.87,578.758 789.536,577.258 792.5,576.5 Z"/></g>
<g><path style="opacity:0.98" fill="#bfa045" d="M 435.5,578.5 C 439.869,577.923 443.869,578.757 447.5,581C 456,589.5 464.5,598 473,606.5C 477.282,611.545 477.615,616.878 474,622.5C 464.833,631.667 455.667,640.833 446.5,650C 441.314,652.226 436.314,651.893 431.5,649C 421.667,640.5 412.5,631.333 404,621.5C 401.968,616.708 402.301,612.041 405,607.5C 414.102,596.561 424.268,586.895 435.5,578.5 Z"/></g>
<g><path style="opacity:0.983" fill="#bea045" d="M 567.5,621.5 C 570.518,621.335 573.518,621.502 576.5,622C 588.707,631.207 599.207,642.04 608,654.5C 608.817,657.964 608.483,661.298 607,664.5C 597.798,675.369 587.632,685.202 576.5,694C 571.816,695.102 567.483,694.436 563.5,692C 553.97,682.804 544.803,673.304 536,663.5C 533.871,657.349 535.204,652.016 540,647.5C 548.76,638.235 557.927,629.569 567.5,621.5 Z"/></g>
<g><path style="opacity:0.983" fill="#bfa045" d="M 659.5,620.5 C 662.691,621.092 665.691,622.259 668.5,624C 671.535,627.37 674.868,630.37 678.5,633C 683.968,639.469 689.801,645.636 696,651.5C 698,655.833 698,660.167 696,664.5C 687.5,674.333 678.333,683.5 668.5,692C 662.65,695.5 656.984,695.167 651.5,691C 643.667,683.167 635.833,675.333 628,667.5C 622.633,661.75 622.299,655.75 627,649.5C 635.167,641.333 643.333,633.167 651.5,625C 653.87,622.758 656.536,621.258 659.5,620.5 Z"/></g>
<g><path style="opacity:0.981" fill="#bea045" d="M 749.5,620.5 C 752.421,621.065 755.088,622.232 757.5,624C 769.303,633.464 779.303,644.464 787.5,657C 786.724,659.995 785.557,662.828 784,665.5C 775.5,675.333 766.333,684.5 756.5,693C 751.867,696.212 747.2,696.212 742.5,693C 733.333,683.833 724.167,674.667 715,665.5C 711.62,659.391 712.286,653.724 717,648.5C 724.833,640.667 732.667,632.833 740.5,625C 743.098,622.472 746.098,620.972 749.5,620.5 Z"/></g>
<g><path style="opacity:0.982" fill="#bfa045" d="M 835.5,621.5 C 838.941,621.301 842.274,621.801 845.5,623C 855.667,631.833 865.167,641.333 874,651.5C 876.147,656.327 875.814,660.994 873,665.5C 864.5,675.333 855.333,684.5 845.5,693C 839.166,695.631 833.499,694.631 828.5,690C 821,682.5 813.5,675 806,667.5C 803.827,664.654 802.327,661.488 801.5,658C 802.245,655.008 803.412,652.174 805,649.5C 813.5,641 822,632.5 830.5,624C 832.315,623.243 833.981,622.41 835.5,621.5 Z"/></g>
<g><path style="opacity:0.983" fill="#bea045" d="M 480.5,623.5 C 485.121,622.993 489.454,623.826 493.5,626C 503.03,635.196 512.197,644.696 521,654.5C 522.125,659.51 521.458,664.177 519,668.5C 510.5,677 502,685.5 493.5,694C 487.185,697.632 481.185,697.299 475.5,693C 465.932,684.102 457.099,674.602 449,664.5C 448.163,660.705 448.496,657.039 450,653.5C 459.398,642.601 469.565,632.601 480.5,623.5 Z"/></g>
<g><path style="opacity:0.982" fill="#bfa044" d="M 613.5,665.5 C 617.813,665.548 621.813,666.715 625.5,669C 634.697,677.863 643.531,687.03 652,696.5C 652.867,700.956 652.534,705.289 651,709.5C 642.14,719.694 632.64,729.194 622.5,738C 617.643,740.21 612.976,739.877 608.5,737C 600,728.5 591.5,720 583,711.5C 578.888,706.05 578.554,700.383 582,694.5C 590.833,685.667 599.667,676.833 608.5,668C 610.315,667.243 611.981,666.41 613.5,665.5 Z"/></g>
<g><path style="opacity:0.985" fill="#bea045" d="M 702.5,665.5 C 708.458,665.48 713.458,667.646 717.5,672C 724.667,679.167 731.833,686.333 739,693.5C 743.058,701.274 742.058,708.274 736,714.5C 728.47,722.365 720.636,729.865 712.5,737C 706.351,740.587 700.684,739.92 695.5,735C 687.333,726.833 679.167,718.667 671,710.5C 667.554,704.617 667.888,698.95 672,693.5C 681.487,683.17 691.653,673.836 702.5,665.5 Z"/></g>
<g><path style="opacity:0.983" fill="#bfa045" d="M 791.5,665.5 C 794.607,665.351 797.607,665.851 800.5,667C 810.667,675.833 820.167,685.333 829,695.5C 831,700.167 831,704.833 829,709.5C 820.131,720.036 810.298,729.536 799.5,738C 794.49,739.125 789.823,738.458 785.5,736C 777,727.5 768.5,719 760,710.5C 756.667,705.167 756.667,699.833 760,694.5C 768.833,685.667 777.667,676.833 786.5,668C 788.315,667.243 789.981,666.41 791.5,665.5 Z"/></g>
<g><path style="opacity:0.984" fill="#bea045" d="M 918.5,694.5 C 918.5,699.5 918.5,704.5 918.5,709.5C 909.699,719.134 900.365,728.301 890.5,737C 884.917,740.482 879.584,740.149 874.5,736C 866,727.5 857.5,719 849,710.5C 845.554,704.617 845.888,698.95 850,693.5C 858.5,685 867,676.5 875.5,668C 880.525,664.822 885.525,664.822 890.5,668C 900.005,676.672 909.338,685.505 918.5,694.5 Z"/></g>
<g><path style="opacity:0.984" fill="#bfa045" d="M 523.5,668.5 C 527.182,668.335 530.848,668.501 534.5,669C 545.632,677.798 555.798,687.631 565,698.5C 567.087,703.32 566.754,707.987 564,712.5C 555.5,721 547,729.5 538.5,738C 532.478,742.541 526.478,742.541 520.5,738C 510.932,729.102 502.099,719.602 494,709.5C 493.146,705.375 493.48,701.375 495,697.5C 504.033,687.301 513.533,677.635 523.5,668.5 Z"/></g>
<g><path style="opacity:0.984" fill="#bea045" d="M 658.5,709.5 C 663.539,709.687 667.872,711.52 671.5,715C 679.361,723.193 687.194,731.36 695,739.5C 698.333,744.5 698.333,749.5 695,754.5C 686.131,765.036 676.298,774.536 665.5,783C 660.889,784.007 656.555,783.34 652.5,781C 644.333,772.833 636.167,764.667 628,756.5C 625.691,753.548 624.191,750.214 623.5,746.5C 624.555,742.722 626.388,739.389 629,736.5C 638.13,726.528 647.964,717.528 658.5,709.5 Z"/></g>
<g><path style="opacity:0.982" fill="#bea045" d="M 745.5,710.5 C 749.273,710.263 752.94,710.763 756.5,712C 766.333,720.5 775.5,729.667 784,739.5C 787.333,744.5 787.333,749.5 784,754.5C 775.5,764.333 766.333,773.5 756.5,782C 751.251,785.438 746.251,785.105 741.5,781C 733,772.5 724.5,764 716,755.5C 711.578,749.933 711.578,744.267 716,738.5C 725.45,728.544 735.284,719.211 745.5,710.5 Z"/></g>
<g><path style="opacity:0.98" fill="#bea045" d="M 833.5,710.5 C 837.182,710.335 840.848,710.501 844.5,711C 854.667,719.833 864.167,729.333 873,739.5C 876.534,745.089 876.201,750.422 872,755.5C 863.5,764 855,772.5 846.5,781C 841.657,783.835 836.657,784.168 831.5,782C 822.667,773.167 813.833,764.333 805,755.5C 800.489,749.859 800.489,744.192 805,738.5C 814.395,728.937 823.895,719.604 833.5,710.5 Z"/></g>
<g><path style="opacity:0.984" fill="#bfa044" d="M 571.5,712.5 C 574.518,712.335 577.518,712.502 580.5,713C 591.067,722.897 600.9,733.397 610,744.5C 611.007,749.111 610.34,753.445 608,757.5C 599.167,766.333 590.333,775.167 581.5,784C 574.841,787.458 568.841,786.458 563.5,781C 556,773.5 548.5,766 541,758.5C 536.888,753.05 536.554,747.383 540,741.5C 548.167,732 557,723.167 566.5,715C 568.315,714.243 569.981,713.41 571.5,712.5 Z"/></g>
<g><path style="opacity:0.98" fill="#bfa045" d="M 702.5,754.5 C 704.527,754.338 706.527,754.505 708.5,755C 712.11,756.944 715.443,759.277 718.5,762C 725.68,768.879 732.513,776.046 739,783.5C 743.734,790.282 743.068,796.615 737,802.5C 729.137,810.698 720.97,818.531 712.5,826C 707.015,829.365 701.682,829.031 696.5,825C 688,816.5 679.5,808 671,799.5C 667.754,794.137 667.754,788.803 671,783.5C 680.819,772.837 691.319,763.17 702.5,754.5 Z"/></g>
<g><path style="opacity:0.981" fill="#bea045" d="M 791.5,754.5 C 793.527,754.338 795.527,754.505 797.5,755C 801.447,757.28 805.113,759.947 808.5,763C 814.551,769.596 820.718,776.096 827,782.5C 829.356,784.862 830.856,787.695 831.5,791C 830.724,793.995 829.557,796.828 828,799.5C 819.5,808 811,816.5 802.5,825C 799.888,826.889 797.055,828.389 794,829.5C 790.518,828.227 787.351,826.393 784.5,824C 776,815.5 767.5,807 759,798.5C 756.774,793.314 757.107,788.314 760,783.5C 769.819,772.837 780.319,763.17 791.5,754.5 Z"/></g>
<g><path style="opacity:0.983" fill="#bea045" d="M 918.5,784.5 C 918.5,789.167 918.5,793.833 918.5,798.5C 909.699,808.134 900.365,817.301 890.5,826C 884.307,829.734 878.64,829.067 873.5,824C 865.333,815.833 857.167,807.667 849,799.5C 845.727,794.1 845.727,788.767 849,783.5C 857.833,774.667 866.667,765.833 875.5,757C 880.446,753.913 885.446,753.913 890.5,757C 900.365,765.699 909.699,774.866 918.5,784.5 Z"/></g>
<g><path style="opacity:0.982" fill="#bfa045" d="M 743.5,799.5 C 747.967,799.133 752.3,799.633 756.5,801C 765.667,810.167 774.833,819.333 784,828.5C 787.333,833.5 787.333,838.5 784,843.5C 775.5,853.333 766.333,862.5 756.5,871C 751.245,873.302 746.245,872.969 741.5,870C 732.667,861.167 723.833,852.333 715,843.5C 711.767,837.979 712.1,832.646 716,827.5C 725.369,818.298 734.536,808.965 743.5,799.5 Z"/></g>
<g><path style="opacity:0.984" fill="#bea045" d="M 834.5,799.5 C 837.518,799.335 840.518,799.502 843.5,800C 854.298,808.464 864.131,817.964 873,828.5C 875.544,833.069 875.878,837.735 874,842.5C 865.167,852.667 855.667,862.167 845.5,871C 840.833,873 836.167,873 831.5,871C 822.333,861.833 813.167,852.667 804,843.5C 800.518,837.917 800.851,832.584 805,827.5C 814.426,817.569 824.26,808.236 834.5,799.5 Z"/></g>
<g><path style="opacity:0.994" fill="#da241b" d="M 918.5,873.5 C 918.5,878.167 918.5,882.833 918.5,887.5C 909.368,896.131 900.368,904.964 891.5,914C 884.605,919.064 878.271,918.397 872.5,912C 863.265,903.435 854.765,894.268 847,884.5C 846.333,881.833 846.333,879.167 847,876.5C 854.431,867.066 862.598,858.232 871.5,850C 874.545,846.81 878.212,844.643 882.5,843.5C 885.83,843.912 888.83,845.078 891.5,847C 900.368,856.036 909.368,864.869 918.5,873.5 Z"/></g>
<g><path style="opacity:0.964" fill="#000000" d="M 917.5,1126.5 C 885.833,1126.5 854.167,1126.5 822.5,1126.5C 822.5,1124.83 822.5,1123.17 822.5,1121.5C 828.211,1120.99 833.878,1120.16 839.5,1119C 842.523,1117.82 844.189,1115.65 844.5,1112.5C 840.744,1100.15 835.744,1088.32 829.5,1077C 807.5,1076.33 785.5,1076.33 763.5,1077C 759.6,1083.97 756.1,1091.13 753,1098.5C 751.607,1103.09 751.274,1107.76 752,1112.5C 753.873,1114.71 756.04,1116.54 758.5,1118C 763.771,1119.28 769.104,1120.28 774.5,1121C 776.155,1122.44 776.822,1124.28 776.5,1126.5C 733.833,1126.5 691.167,1126.5 648.5,1126.5C 628.907,1100.39 609.073,1074.39 589,1048.5C 584.914,1047.55 580.747,1046.88 576.5,1046.5C 576.044,1068.22 576.544,1089.89 578,1111.5C 578.786,1114.58 580.619,1116.75 583.5,1118C 589.761,1119.58 596.094,1120.75 602.5,1121.5C 602.5,1123.17 602.5,1124.83 602.5,1126.5C 569.167,1126.5 535.833,1126.5 502.5,1126.5C 502.215,1124.71 502.548,1123.05 503.5,1121.5C 509.628,1121.02 515.628,1119.85 521.5,1118C 524.756,1116.41 526.923,1113.91 528,1110.5C 529.561,1066.51 529.895,1022.51 529,978.5C 528.752,973.437 528.085,968.437 527,963.5C 525.5,962 524,960.5 522.5,959C 516.271,957.207 509.938,956.041 503.5,955.5C 502.534,953.604 502.201,951.604 502.5,949.5C 544.18,949.135 585.847,949.635 627.5,951C 645.615,951.477 660.782,958.311 673,971.5C 681.46,984.007 683.793,997.674 680,1012.5C 675.255,1024.91 666.755,1033.75 654.5,1039C 649.757,1040.47 645.091,1042.14 640.5,1044C 659.207,1069.07 678.874,1093.4 699.5,1117C 713.379,1122.66 724.546,1119.16 733,1106.5C 759.845,1054.14 786.178,1001.48 812,948.5C 813.724,945.27 815.724,944.936 818,947.5C 843.744,1000.65 869.744,1053.65 896,1106.5C 900.055,1115.22 906.889,1120.05 916.5,1121C 917.406,1122.7 917.739,1124.53 917.5,1126.5 Z M 576.5,960.5 C 587.611,960.005 598.611,960.838 609.5,963C 624.399,967.582 632.233,977.749 633,993.5C 635.863,1017.65 625.363,1031.48 601.5,1035C 594.48,1035.28 587.48,1035.78 580.5,1036.5C 579.228,1036.43 578.062,1036.1 577,1035.5C 576.5,1010.5 576.333,985.502 576.5,960.5 Z M 796.5,1009.5 C 805.931,1028.2 815.264,1047.03 824.5,1066C 808.5,1066.67 792.5,1066.67 776.5,1066C 774.1,1065.81 771.766,1065.31 769.5,1064.5C 778.242,1046.02 787.242,1027.68 796.5,1009.5 Z"/></g>
<g><path style="opacity:0.977" fill="#000000" d="M -0.5,949.5 C 33.5,949.5 67.5,949.5 101.5,949.5C 101.5,951.5 101.5,953.5 101.5,955.5C 95.4022,955.679 89.4022,956.512 83.5,958C 80,959.5 77.5,962 76,965.5C 74.0061,1014.17 74.0061,1062.83 76,1111.5C 77.8917,1115.06 80.7251,1117.56 84.5,1119C 90.1222,1120.16 95.7888,1120.99 101.5,1121.5C 101.5,1123.17 101.5,1124.83 101.5,1126.5C 67.5,1126.5 33.5,1126.5 -0.5,1126.5C -0.5,1124.83 -0.5,1123.17 -0.5,1121.5C 6.31091,1121.15 12.9776,1119.98 19.5,1118C 21.9167,1116.34 23.75,1114.17 25,1111.5C 26.1322,1090.2 26.6322,1068.87 26.5,1047.5C 26.5287,1020.16 26.0287,992.822 25,965.5C 23.8596,961.693 21.3596,959.193 17.5,958C 11.5331,956.888 5.53305,956.054 -0.5,955.5C -0.5,953.5 -0.5,951.5 -0.5,949.5 Z"/></g>
<g><path style="opacity:0.966" fill="#000000" d="M 256.5,1126.5 C 222.5,1126.5 188.5,1126.5 154.5,1126.5C 154.5,1124.83 154.5,1123.17 154.5,1121.5C 161.813,1121.34 168.813,1119.84 175.5,1117C 177.617,1115.27 179.117,1113.1 180,1110.5C 181.325,1060.84 181.825,1011.18 181.5,961.5C 150.885,955.62 131.885,967.62 124.5,997.5C 122.257,998.474 119.924,998.808 117.5,998.5C 117.5,982.167 117.5,965.833 117.5,949.5C 176.167,949.5 234.833,949.5 293.5,949.5C 293.5,965.833 293.5,982.167 293.5,998.5C 291.856,998.286 290.356,998.62 289,999.5C 288.075,998.953 287.242,998.287 286.5,997.5C 278.755,968.109 259.755,956.109 229.5,961.5C 229.037,1011.86 229.537,1062.19 231,1112.5C 232.167,1115 234,1116.83 236.5,1118C 243.022,1119.98 249.689,1121.15 256.5,1121.5C 256.5,1123.17 256.5,1124.83 256.5,1126.5 Z"/></g>
<g><path style="opacity:0.952" fill="#000000" d="M 476.5,1126.5 C 420.167,1126.5 363.833,1126.5 307.5,1126.5C 307.5,1124.83 307.5,1123.17 307.5,1121.5C 313.566,1121.16 319.566,1120.33 325.5,1119C 328.562,1117.94 331.062,1116.11 333,1113.5C 334.148,1088.38 334.648,1063.21 334.5,1038C 334.648,1012.79 334.148,987.619 333,962.5C 330.331,959.836 327.164,958.002 323.5,957C 318.156,956.529 312.822,956.029 307.5,955.5C 307.5,953.5 307.5,951.5 307.5,949.5C 362.167,949.5 416.833,949.5 471.5,949.5C 471.5,967.5 471.5,985.5 471.5,1003.5C 469.076,1003.81 466.743,1003.47 464.5,1002.5C 462.411,991.375 457.744,981.542 450.5,973C 441.493,965.824 431.16,962.158 419.5,962C 407.505,961.5 395.505,961.333 383.5,961.5C 383.5,984.833 383.5,1008.17 383.5,1031.5C 401.558,1032.56 413.391,1024.56 419,1007.5C 420.747,1001.6 421.913,995.601 422.5,989.5C 424.833,989.5 427.167,989.5 429.5,989.5C 429.5,1020.83 429.5,1052.17 429.5,1083.5C 427.167,1083.5 424.833,1083.5 422.5,1083.5C 421.556,1072.61 418.056,1062.61 412,1053.5C 409.408,1050.24 406.241,1047.74 402.5,1046C 395.978,1044.02 389.311,1042.85 382.5,1042.5C 383.276,1063.48 383.776,1084.48 384,1105.5C 385.167,1110.67 388.333,1113.83 393.5,1115C 403.833,1115.67 414.167,1115.67 424.5,1115C 452.264,1112.07 470.264,1097.24 478.5,1070.5C 480.421,1069.36 482.421,1069.19 484.5,1070C 482.781,1088.83 480.115,1107.66 476.5,1126.5 Z"/></g>
</svg>
